<svg width="400" height="400" viewBox="0 0 400 400" fill="none" xmlns="http://www.w3.org/2000/svg">
<rect width="400" height="400" fill="#FFD865"/>
<path d="M155.719 81.3125V103H149.938V81.3125C149.938 78.1667 149.385 75.8542 148.281 74.375C147.177 72.8958 145.448 72.1562 143.094 72.1562C140.406 72.1562 138.333 73.1146 136.875 75.0312C135.438 76.9271 134.719 79.6562 134.719 83.2188V103H128.969V54.375H134.719V73.25C135.74 71.25 137.125 69.7396 138.875 68.7188C140.625 67.6771 142.698 67.1562 145.094 67.1562C148.656 67.1562 151.312 68.3333 153.062 70.6875C154.833 73.0208 155.719 76.5625 155.719 81.3125ZM183.375 85.4062H181.469C178.115 85.4062 175.583 86 173.875 87.1875C172.188 88.3542 171.344 90.1042 171.344 92.4375C171.344 94.5417 171.979 96.1771 173.25 97.3438C174.521 98.5104 176.281 99.0938 178.531 99.0938C181.698 99.0938 184.188 98 186 95.8125C187.812 93.6042 188.729 90.5625 188.75 86.6875V85.4062H183.375ZM194.531 83.0312V103H188.75V97.8125C187.521 99.8958 185.969 101.438 184.094 102.438C182.24 103.417 179.979 103.906 177.312 103.906C173.75 103.906 170.906 102.906 168.781 100.906C166.656 98.8854 165.594 96.1875 165.594 92.8125C165.594 88.9167 166.896 85.9583 169.5 83.9375C172.125 81.9167 175.969 80.9062 181.031 80.9062H188.75V80C188.729 77.2083 188.021 75.1875 186.625 73.9375C185.229 72.6667 183 72.0312 179.938 72.0312C177.979 72.0312 176 72.3125 174 72.875C172 73.4375 170.052 74.2604 168.156 75.3438V69.5938C170.281 68.7812 172.312 68.1771 174.25 67.7812C176.208 67.3646 178.104 67.1562 179.938 67.1562C182.833 67.1562 185.302 67.5833 187.344 68.4375C189.406 69.2917 191.073 70.5729 192.344 72.2812C193.135 73.3229 193.698 74.6146 194.031 76.1562C194.365 77.6771 194.531 79.9688 194.531 83.0312ZM233.156 101.219C231.615 102.115 230.021 102.781 228.375 103.219C226.75 103.677 225.083 103.906 223.375 103.906C217.958 103.906 213.719 102.281 210.656 99.0312C207.615 95.7812 206.094 91.2812 206.094 85.5312C206.094 79.7812 207.615 75.2812 210.656 72.0312C213.719 68.7812 217.958 67.1562 223.375 67.1562C225.062 67.1562 226.708 67.375 228.312 67.8125C229.917 68.25 231.531 68.9271 233.156 69.8438V75.875C231.635 74.5208 230.104 73.5417 228.562 72.9375C227.042 72.3333 225.312 72.0312 223.375 72.0312C219.771 72.0312 217 73.1979 215.062 75.5312C213.125 77.8646 212.156 81.1979 212.156 85.5312C212.156 89.8438 213.125 93.1771 215.062 95.5312C217.021 97.8646 219.792 99.0312 223.375 99.0312C225.375 99.0312 227.167 98.7292 228.75 98.125C230.333 97.5 231.802 96.5417 233.156 95.25V101.219ZM245.938 54.375H251.875V82.5312L266.969 68H273.969L260.188 81.1875L276.125 103H269.094L256.156 84.9375L251.875 88.9688V103H245.938V54.375ZM155.719 156.312V178H149.938V156.312C149.938 153.167 149.385 150.854 148.281 149.375C147.177 147.896 145.448 147.156 143.094 147.156C140.406 147.156 138.333 148.115 136.875 150.031C135.438 151.927 134.719 154.656 134.719 158.219V178H128.969V143H134.719V148.25C135.74 146.25 137.125 144.74 138.875 143.719C140.625 142.677 142.698 142.156 145.094 142.156C148.656 142.156 151.312 143.333 153.062 145.688C154.833 148.021 155.719 151.562 155.719 156.312ZM180.688 147.031C177.771 147.031 175.562 148.167 174.062 150.438C172.562 152.708 171.812 156.073 171.812 160.531C171.812 164.969 172.562 168.333 174.062 170.625C175.562 172.896 177.771 174.031 180.688 174.031C183.625 174.031 185.844 172.896 187.344 170.625C188.844 168.333 189.594 164.969 189.594 160.531C189.594 156.073 188.844 152.708 187.344 150.438C185.844 148.167 183.625 147.031 180.688 147.031ZM180.688 142.156C185.542 142.156 189.25 143.729 191.812 146.875C194.396 150.021 195.688 154.573 195.688 160.531C195.688 166.51 194.406 171.073 191.844 174.219C189.281 177.344 185.562 178.906 180.688 178.906C175.833 178.906 172.125 177.344 169.562 174.219C167 171.073 165.719 166.51 165.719 160.531C165.719 154.573 167 150.021 169.562 146.875C172.125 143.729 175.833 142.156 180.688 142.156ZM219.188 133.062V143H232.25V147.469H219.188V166.469C219.188 169.052 219.677 170.854 220.656 171.875C221.635 172.896 223.344 173.406 225.781 173.406H232.25V178H225.219C220.906 178 217.865 177.135 216.094 175.406C214.323 173.677 213.438 170.698 213.438 166.469V147.469H204.094V143H213.438V133.062H219.188ZM273.562 157.625V160.438H248.656V160.625C248.49 165.396 249.396 168.823 251.375 170.906C253.375 172.99 256.188 174.031 259.812 174.031C261.646 174.031 263.562 173.74 265.562 173.156C267.562 172.573 269.698 171.688 271.969 170.5V176.219C269.781 177.115 267.667 177.781 265.625 178.219C263.604 178.677 261.646 178.906 259.75 178.906C254.312 178.906 250.062 177.281 247 174.031C243.938 170.76 242.406 166.26 242.406 160.531C242.406 154.948 243.906 150.49 246.906 147.156C249.906 143.823 253.906 142.156 258.906 142.156C263.365 142.156 266.875 143.667 269.438 146.688C272.021 149.708 273.396 153.354 273.562 157.625ZM267.812 155.938C267.562 153.521 266.677 151.438 265.156 149.688C263.656 147.917 261.49 147.031 258.656 147.031C255.885 147.031 253.604 147.948 251.812 149.781C250.021 151.615 249.042 153.677 248.875 155.969L267.812 155.938ZM129.688 322.375V301C133.271 304.667 137.083 307.458 141.125 309.375C145.208 311.292 149.312 312.25 153.438 312.25C158.271 312.25 161.812 311.042 164.062 308.625C166.312 306.208 167.438 302.354 167.438 297.062V249.938H144.875V233.688H185.875V297.062C185.875 308.438 183.479 316.583 178.688 321.5C173.938 326.375 166.083 328.812 155.125 328.812C151.167 328.812 147.021 328.271 142.688 327.188C138.396 326.104 134.062 324.5 129.688 322.375ZM231.875 286.062C222.583 282.521 216.292 278.812 213 274.938C209.708 271.021 208.062 265.771 208.062 259.188C208.062 250.729 210.771 244.083 216.188 239.25C221.604 234.417 229.042 232 238.5 232C242.792 232 247.083 232.5 251.375 233.5C255.667 234.458 259.917 235.896 264.125 237.812V255.812C260.167 253.021 256.146 250.896 252.062 249.438C247.979 247.979 243.938 247.25 239.938 247.25C235.479 247.25 232.062 248.146 229.688 249.938C227.312 251.729 226.125 254.292 226.125 257.625C226.125 260.208 226.979 262.354 228.688 264.062C230.438 265.729 234.062 267.583 239.562 269.625L247.5 272.625C255 275.375 260.521 279.021 264.062 283.562C267.604 288.104 269.375 293.833 269.375 300.75C269.375 310.167 266.583 317.208 261 321.875C255.458 326.5 247.062 328.812 235.812 328.812C231.188 328.812 226.542 328.25 221.875 327.125C217.25 326.042 212.771 324.417 208.438 322.25V303.188C213.354 306.688 218.104 309.292 222.688 311C227.312 312.708 231.875 313.562 236.375 313.562C240.917 313.562 244.438 312.542 246.938 310.5C249.438 308.417 250.688 305.521 250.688 301.812C250.688 299.021 249.854 296.583 248.188 294.5C246.521 292.375 244.104 290.708 240.938 289.5L231.875 286.062Z" fill="#272727"/>
</svg>
