<?xml version="1.0" standalone="no"?>
<!DOCTYPE svg PUBLIC "-//W3C//DTD SVG 20010904//EN"
 "http://www.w3.org/TR/2001/REC-SVG-20010904/DTD/svg10.dtd">
<svg version="1.0" xmlns="http://www.w3.org/2000/svg"
 width="700.000000pt" height="700.000000pt" viewBox="0 0 700.000000 700.000000"
 preserveAspectRatio="xMidYMid meet">
<metadata>
Created by potrace 1.14, written by Peter Selinger 2001-2017
</metadata>
<g transform="translate(0.000000,700.000000) scale(0.100000,-0.100000)"
fill="#000000" stroke="none">
<path d="M2260 5625 l0 -425 50 0 50 0 0 208 c0 181 3 212 19 249 32 69 105
98 175 69 60 -25 66 -51 66 -306 l0 -220 55 0 55 0 0 178 c-1 291 -18 371 -90
420 -68 46 -206 23 -259 -44 l-21 -27 0 162 0 161 -50 0 -50 0 0 -425z"/>
<path d="M4300 5625 l0 -425 55 0 55 0 0 123 0 123 33 32 c18 18 35 32 38 32
2 0 54 -70 114 -155 l110 -154 63 -1 63 0 -39 53 c-21 28 -82 111 -135 184
-53 73 -97 136 -97 140 -1 4 52 59 117 120 l118 113 -62 0 -61 0 -131 -126
-131 -126 0 246 0 246 -55 0 -55 0 0 -425z"/>
<path d="M3011 5804 c-71 -19 -71 -19 -71 -71 0 -50 -5 -49 80 -18 71 27 152
31 205 10 51 -19 75 -54 75 -108 l0 -35 -127 -4 c-146 -4 -191 -20 -240 -84
-40 -53 -45 -150 -11 -214 60 -112 241 -133 338 -41 l40 38 0 -39 0 -38 50 0
50 0 0 230 c0 290 -8 316 -115 366 -41 19 -66 24 -135 23 -47 0 -109 -7 -139
-15z m287 -351 c-8 -114 -59 -173 -155 -181 -91 -8 -143 31 -143 107 0 95 58
126 239 130 l63 1 -4 -57z"/>
<path d="M3785 5804 c-61 -21 -110 -68 -142 -132 -26 -52 -28 -66 -28 -172 0
-105 2 -119 27 -165 55 -103 135 -149 263 -149 60 0 92 5 128 21 l47 22 0 52
c0 49 -1 51 -18 36 -47 -43 -163 -61 -229 -36 -91 34 -140 162 -113 292 15 73
45 117 100 145 69 34 178 24 229 -22 28 -25 32 -20 29 36 -3 52 -3 53 -48 70
-56 21 -188 22 -245 2z"/>
<path d="M3740 4585 l0 -85 -85 0 -85 0 0 -40 0 -39 83 -3 82 -3 5 -217 c5
-199 7 -219 26 -245 33 -45 78 -61 192 -69 l102 -7 0 47 0 46 -85 0 c-78 0
-88 2 -110 25 -25 24 -25 25 -25 225 l0 200 110 0 110 0 0 40 0 40 -110 0
-110 0 0 85 0 85 -50 0 -50 0 0 -85z"/>
<path d="M2452 4495 c-19 -8 -47 -29 -63 -46 l-29 -31 0 41 0 41 -50 0 -50 0
0 -311 0 -310 48 3 47 3 5 220 c5 205 6 222 27 256 27 43 59 59 119 59 103 0
108 -13 114 -300 l5 -235 50 0 50 0 -1 237 -1 236 -27 56 c-21 43 -37 61 -66
76 -47 24 -130 26 -178 5z"/>
<path d="M3039 4483 c-65 -34 -102 -84 -124 -168 -30 -116 -12 -268 40 -347
52 -79 171 -115 286 -88 71 17 137 82 162 159 23 72 23 230 0 302 -22 69 -92
142 -148 158 -74 20 -156 14 -216 -16z m200 -81 c44 -32 62 -67 73 -138 19
-123 -11 -242 -73 -287 -38 -27 -118 -26 -157 2 -46 32 -65 84 -70 187 -7 147
27 230 104 254 39 12 93 4 123 -18z"/>
<path d="M4424 4494 c-90 -32 -154 -116 -175 -230 -29 -158 30 -303 147 -360
52 -26 70 -29 149 -29 58 0 112 7 153 19 l62 19 0 48 c0 27 -2 49 -4 49 -2 0
-35 -12 -72 -26 -136 -51 -262 -27 -306 58 -11 20 -22 62 -25 92 l-6 56 223 0
223 0 -7 61 c-11 112 -68 201 -151 240 -49 23 -152 24 -211 3z m181 -86 c28
-13 61 -61 75 -108 l9 -30 -165 0 c-177 0 -175 -1 -155 53 14 35 68 85 104 96
36 11 94 6 132 -11z"/>
<path d="M4015 2923 c-148 -31 -276 -126 -331 -247 -36 -79 -51 -196 -36 -290
30 -197 134 -288 469 -414 155 -59 205 -90 241 -151 46 -79 33 -189 -30 -248
-45 -42 -96 -57 -198 -56 -139 0 -279 45 -420 136 l-55 36 -3 -157 c-1 -86 0
-162 2 -168 6 -14 134 -64 231 -90 56 -15 106 -19 250 -19 170 0 185 2 265 28
209 69 299 192 308 423 7 177 -28 277 -133 379 -62 61 -151 109 -323 174 -247
94 -292 130 -292 236 0 55 18 93 60 128 40 34 89 47 181 47 122 0 280 -50 381
-121 14 -11 29 -19 32 -19 4 0 5 71 4 157 l-3 158 -95 32 c-180 61 -359 77
-505 46z"/>
<path d="M2540 2770 l0 -140 195 0 195 0 0 -442 c0 -266 -5 -461 -11 -488 -14
-62 -50 -113 -96 -136 -61 -30 -197 -32 -284 -4 -76 25 -162 76 -228 136 l-41
37 2 -189 3 -189 80 -32 c127 -51 191 -65 326 -70 272 -12 426 52 503 209 65
131 66 143 66 831 l0 617 -355 0 -355 0 0 -140z"/>
</g>
</svg>
