<svg width="32" height="32" viewBox="0 0 32 32" fill="none" xmlns="http://www.w3.org/2000/svg">
<path d="M23 6H9C8.73478 6 8.48043 5.89464 8.29289 5.70711C8.10536 5.51957 8 5.26522 8 5C8 4.73478 8.10536 4.48043 8.29289 4.29289C8.48043 4.10536 8.73478 4 9 4H23C23.2652 4 23.5196 4.10536 23.7071 4.29289C23.8946 4.48043 24 4.73478 24 5C24 5.26522 23.8946 5.51957 23.7071 5.70711C23.5196 5.89464 23.2652 6 23 6ZM25 9H7C6.73478 9 6.48043 8.89464 6.29289 8.70711C6.10536 8.51957 6 8.26522 6 8C6 7.73478 6.10536 7.48043 6.29289 7.29289C6.48043 7.10536 6.73478 7 7 7H25C25.2652 7 25.5196 7.10536 25.7071 7.29289C25.8946 7.48043 26 7.73478 26 8C26 8.26522 25.8946 8.51957 25.7071 8.70711C25.5196 8.89464 25.2652 9 25 9ZM26.1956 28H5.80438C5.06086 27.9992 4.34804 27.7034 3.8223 27.1777C3.29655 26.652 3.00083 25.9391 3 25.1956V12.8044C3.00083 12.0609 3.29655 11.348 3.8223 10.8223C4.34804 10.2966 5.06086 10.0008 5.80438 10H26.1956C26.9391 10.0008 27.652 10.2966 28.1777 10.8223C28.7034 11.348 28.9992 12.0609 29 12.8044V25.1956C28.9992 25.9391 28.7034 26.652 28.1777 27.1777C27.652 27.7034 26.9391 27.9992 26.1956 28Z" fill="#F7F0FF"/>
</svg>
