<svg width="32" height="32" viewBox="0 0 32 32" fill="none" xmlns="http://www.w3.org/2000/svg">
<path d="M12.64 4.62523C10.3819 3.5471 7.22563 3.01898 3 3.00023C2.60148 2.99481 2.21078 3.11102 1.88 3.33335C1.6085 3.51687 1.38624 3.7643 1.2328 4.05386C1.07935 4.34343 0.999407 4.66627 1 4.99398V22.8752C1 24.084 1.86 24.9959 3 24.9959C7.44188 24.9959 11.8975 25.4109 14.5663 27.9334C14.6028 27.968 14.6486 27.9912 14.6982 28C14.7478 28.0088 14.7988 28.0028 14.8451 27.9829C14.8913 27.9629 14.9306 27.9298 14.9581 27.8876C14.9857 27.8455 15.0002 27.7962 15 27.7459V6.67648C15.0001 6.53433 14.9697 6.39381 14.9108 6.26442C14.852 6.13503 14.766 6.01979 14.6588 5.92648C14.0474 5.40388 13.3684 4.96617 12.64 4.62523ZM30.12 3.33148C29.7891 3.1097 29.3983 2.99414 29 3.00023C24.7744 3.01898 21.6181 3.5446 19.36 4.62523C18.6316 4.96556 17.9524 5.4024 17.3406 5.92398C17.2336 6.01745 17.1479 6.13274 17.0891 6.2621C17.0304 6.39146 17 6.5319 17 6.67398V27.7446C17 27.793 17.0142 27.8403 17.041 27.8806C17.0677 27.9209 17.1058 27.9524 17.1504 27.9712C17.195 27.9899 17.2441 27.9951 17.2916 27.986C17.3392 27.977 17.3829 27.9541 17.4175 27.9202C19.0219 26.3265 21.8375 24.994 29.0025 24.9946C29.5329 24.9946 30.0416 24.7839 30.4167 24.4088C30.7918 24.0337 31.0025 23.525 31.0025 22.9946V4.9946C31.0032 4.66624 30.9231 4.34276 30.7692 4.0527C30.6153 3.76265 30.3923 3.51495 30.12 3.33148Z" fill="#F7F0FF"/>
</svg>
