<svg width="32" height="32" viewBox="0 0 32 32" fill="none" xmlns="http://www.w3.org/2000/svg">
<path d="M25.9481 6.14935C24.6504 4.83883 23.1066 3.79763 21.4053 3.08555C19.704 2.37348 17.8788 2.00458 16.0345 2.00004C14.1902 1.9955 12.3631 2.35542 10.6584 3.0591C8.95357 3.76279 7.40463 4.79638 6.1005 6.1005C4.79638 7.40463 3.76279 8.95357 3.0591 10.6584C2.35542 12.3631 1.9955 14.1902 2.00004 16.0345C2.00458 17.8788 2.37348 19.704 3.08555 21.4053C3.79763 23.1066 4.83883 24.6504 6.14935 25.9481C7.44704 27.2586 8.99088 28.2998 10.6922 29.0119C12.3935 29.724 14.2187 30.0929 16.063 30.0974C17.9073 30.102 19.7343 29.742 21.4391 29.0384C23.1439 28.3347 24.6928 27.3011 25.997 25.997C27.3011 24.6928 28.3347 23.1439 29.0384 21.4391C29.742 19.7343 30.102 17.9073 30.0974 16.063C30.0929 14.2187 29.724 12.3935 29.0119 10.6922C28.2998 8.99088 27.2586 7.44704 25.9481 6.14935ZM27.0487 16.0487C27.0511 18.4479 26.2649 20.7814 24.8112 22.69L9.40748 7.28623C11.3161 5.83255 13.6496 5.04638 16.0487 5.04873C22.1144 5.04873 27.0487 9.98623 27.0487 16.0487ZM5.04873 16.0487C5.04638 13.6496 5.83255 11.3161 7.28623 9.40748L22.69 24.8112C20.7814 26.2649 18.4479 27.0511 16.0487 27.0487C9.98623 27.0487 5.04873 22.1144 5.04873 16.0487Z" fill="#F7F0FF"/>
</svg>
