<svg width="32" height="32" viewBox="0 0 32 32" fill="none" xmlns="http://www.w3.org/2000/svg">
<path d="M25.5 3H6.5C5.30693 3.00132 4.16311 3.47585 3.31948 4.31948C2.47585 5.16311 2.00132 6.30693 2 7.5V19.5C2.00132 20.6931 2.47585 21.8369 3.31948 22.6805C4.16311 23.5241 5.30693 23.9987 6.5 24H8V28C7.99995 28.1901 8.05411 28.3764 8.15612 28.5368C8.25814 28.6973 8.40378 28.8253 8.57598 28.9059C8.74818 28.9865 8.9398 29.0164 9.12836 28.992C9.31693 28.9676 9.49463 28.8899 9.64062 28.7681L15.3588 24H25.5C26.6931 23.9987 27.8369 23.5241 28.6805 22.6805C29.5241 21.8369 29.9987 20.6931 30 19.5V7.5C29.9987 6.30693 29.5241 5.16311 28.6805 4.31948C27.8369 3.47585 26.6931 3.00132 25.5 3ZM10 15.5C9.60444 15.5 9.21776 15.3827 8.88886 15.1629C8.55996 14.9432 8.30362 14.6308 8.15224 14.2654C8.00087 13.8999 7.96126 13.4978 8.03843 13.1098C8.1156 12.7219 8.30608 12.3655 8.58579 12.0858C8.86549 11.8061 9.22186 11.6156 9.60982 11.5384C9.99778 11.4613 10.3999 11.5009 10.7654 11.6522C11.1308 11.8036 11.4432 12.06 11.6629 12.3889C11.8827 12.7178 12 13.1044 12 13.5C12 14.0304 11.7893 14.5391 11.4142 14.9142C11.0391 15.2893 10.5304 15.5 10 15.5ZM16 15.5C15.6044 15.5 15.2178 15.3827 14.8889 15.1629C14.56 14.9432 14.3036 14.6308 14.1522 14.2654C14.0009 13.8999 13.9613 13.4978 14.0384 13.1098C14.1156 12.7219 14.3061 12.3655 14.5858 12.0858C14.8655 11.8061 15.2219 11.6156 15.6098 11.5384C15.9978 11.4613 16.3999 11.5009 16.7654 11.6522C17.1308 11.8036 17.4432 12.06 17.6629 12.3889C17.8827 12.7178 18 13.1044 18 13.5C18 14.0304 17.7893 14.5391 17.4142 14.9142C17.0391 15.2893 16.5304 15.5 16 15.5ZM22 15.5C21.6044 15.5 21.2178 15.3827 20.8889 15.1629C20.56 14.9432 20.3036 14.6308 20.1522 14.2654C20.0009 13.8999 19.9613 13.4978 20.0384 13.1098C20.1156 12.7219 20.3061 12.3655 20.5858 12.0858C20.8655 11.8061 21.2219 11.6156 21.6098 11.5384C21.9978 11.4613 22.3999 11.5009 22.7654 11.6522C23.1308 11.8036 23.4432 12.06 23.6629 12.3889C23.8827 12.7178 24 13.1044 24 13.5C24 14.0304 23.7893 14.5391 23.4142 14.9142C23.0391 15.2893 22.5304 15.5 22 15.5Z" fill="#F7F0FF"/>
</svg>
