<svg width="32" height="32" viewBox="0 0 32 32" fill="none" xmlns="http://www.w3.org/2000/svg">
<g clip-path="url(#clip0_770_582)">
<path d="M32 6.85706C32 5.64464 31.5184 4.48187 30.6611 3.62456C29.8038 2.76725 28.641 2.28562 27.4286 2.28562H26.2857V1.1749C26.2857 0.559898 25.8129 0.0320387 25.1979 0.00132428C25.0433 -0.0061209 24.8889 0.0178844 24.7439 0.0718858C24.599 0.125887 24.4665 0.20876 24.3545 0.315483C24.2425 0.422206 24.1533 0.550557 24.0924 0.692759C24.0314 0.83496 24 0.988052 24 1.14276V2.28562H8V1.1749C8 0.559898 7.52714 0.0320387 6.91214 0.00132428C6.75762 -0.0061209 6.60319 0.0178844 6.45822 0.0718858C6.31324 0.125887 6.18074 0.20876 6.06874 0.315483C5.95675 0.422206 5.86758 0.550557 5.80665 0.692759C5.74572 0.83496 5.7143 0.988052 5.71429 1.14276V2.28562H4.57143C3.35901 2.28562 2.19625 2.76725 1.33894 3.62456C0.481631 4.48187 0 5.64464 0 6.85706V7.71421C0 7.78998 0.030102 7.86266 0.0836838 7.91624C0.137266 7.96982 0.209938 7.99992 0.285714 7.99992H31.7143C31.7901 7.99992 31.8627 7.96982 31.9163 7.91624C31.9699 7.86266 32 7.78998 32 7.71421V6.85706ZM0 27.4286C0 28.641 0.481631 29.8037 1.33894 30.6611C2.19625 31.5184 3.35901 32 4.57143 32H27.4286C28.641 32 29.8038 31.5184 30.6611 30.6611C31.5184 29.8037 32 28.641 32 27.4286V10.4999C32 10.4431 31.9774 10.3886 31.9372 10.3484C31.8971 10.3082 31.8425 10.2856 31.7857 10.2856H0.214286C0.157454 10.2856 0.102949 10.3082 0.0627629 10.3484C0.0225766 10.3886 0 10.4431 0 10.4999V27.4286ZM24.5714 12.5714C24.9105 12.5714 25.2419 12.6719 25.5238 12.8603C25.8057 13.0486 26.0255 13.3164 26.1552 13.6296C26.285 13.9429 26.3189 14.2876 26.2528 14.6201C26.1866 14.9526 26.0234 15.2581 25.7836 15.4978C25.5439 15.7376 25.2384 15.9009 24.9059 15.967C24.5733 16.0332 24.2286 15.9992 23.9154 15.8695C23.6022 15.7397 23.3344 15.52 23.1461 15.2381C22.9577 14.9562 22.8571 14.6247 22.8571 14.2857C22.8571 13.831 23.0378 13.395 23.3592 13.0735C23.6807 12.752 24.1168 12.5714 24.5714 12.5714ZM24.5714 18.2857C24.9105 18.2857 25.2419 18.3862 25.5238 18.5746C25.8057 18.7629 26.0255 19.0307 26.1552 19.3439C26.285 19.6572 26.3189 20.0019 26.2528 20.3344C26.1866 20.6669 26.0234 20.9724 25.7836 21.2121C25.5439 21.4519 25.2384 21.6152 24.9059 21.6813C24.5733 21.7475 24.2286 21.7135 23.9154 21.5838C23.6022 21.454 23.3344 21.2343 23.1461 20.9524C22.9577 20.6705 22.8571 20.339 22.8571 20C22.8571 19.5453 23.0378 19.1093 23.3592 18.7878C23.6807 18.4663 24.1168 18.2857 24.5714 18.2857ZM18.8571 12.5714C19.1962 12.5714 19.5276 12.6719 19.8095 12.8603C20.0915 13.0486 20.3112 13.3164 20.4409 13.6296C20.5707 13.9429 20.6046 14.2876 20.5385 14.6201C20.4723 14.9526 20.3091 15.2581 20.0693 15.4978C19.8296 15.7376 19.5241 15.9009 19.1916 15.967C18.859 16.0332 18.5144 15.9992 18.2011 15.8695C17.8879 15.7397 17.6201 15.52 17.4318 15.2381C17.2434 14.9562 17.1429 14.6247 17.1429 14.2857C17.1429 13.831 17.3235 13.395 17.645 13.0735C17.9665 12.752 18.4025 12.5714 18.8571 12.5714ZM18.8571 18.2857C19.1962 18.2857 19.5276 18.3862 19.8095 18.5746C20.0915 18.7629 20.3112 19.0307 20.4409 19.3439C20.5707 19.6572 20.6046 20.0019 20.5385 20.3344C20.4723 20.6669 20.3091 20.9724 20.0693 21.2121C19.8296 21.4519 19.5241 21.6152 19.1916 21.6813C18.859 21.7475 18.5144 21.7135 18.2011 21.5838C17.8879 21.454 17.6201 21.2343 17.4318 20.9524C17.2434 20.6705 17.1429 20.339 17.1429 20C17.1429 19.5453 17.3235 19.1093 17.645 18.7878C17.9665 18.4663 18.4025 18.2857 18.8571 18.2857ZM18.8571 24C19.1962 24 19.5276 24.1005 19.8095 24.2889C20.0915 24.4773 20.3112 24.745 20.4409 25.0582C20.5707 25.3715 20.6046 25.7162 20.5385 26.0487C20.4723 26.3812 20.3091 26.6867 20.0693 26.9265C19.8296 27.1662 19.5241 27.3295 19.1916 27.3956C18.859 27.4618 18.5144 27.4278 18.2011 27.2981C17.8879 27.1683 17.6201 26.9486 17.4318 26.6667C17.2434 26.3848 17.1429 26.0533 17.1429 25.7143C17.1429 25.2596 17.3235 24.8236 17.645 24.5021C17.9665 24.1806 18.4025 24 18.8571 24ZM13.1429 18.2857C13.4819 18.2857 13.8134 18.3862 14.0953 18.5746C14.3772 18.7629 14.5969 19.0307 14.7267 19.3439C14.8564 19.6572 14.8904 20.0019 14.8242 20.3344C14.7581 20.6669 14.5948 20.9724 14.355 21.2121C14.1153 21.4519 13.8098 21.6152 13.4773 21.6813C13.1448 21.7475 12.8001 21.7135 12.4868 21.5838C12.1736 21.454 11.9058 21.2343 11.7175 20.9524C11.5291 20.6705 11.4286 20.339 11.4286 20C11.4286 19.5453 11.6092 19.1093 11.9307 18.7878C12.2522 18.4663 12.6882 18.2857 13.1429 18.2857ZM13.1429 24C13.4819 24 13.8134 24.1005 14.0953 24.2889C14.3772 24.4773 14.5969 24.745 14.7267 25.0582C14.8564 25.3715 14.8904 25.7162 14.8242 26.0487C14.7581 26.3812 14.5948 26.6867 14.355 26.9265C14.1153 27.1662 13.8098 27.3295 13.4773 27.3956C13.1448 27.4618 12.8001 27.4278 12.4868 27.2981C12.1736 27.1683 11.9058 26.9486 11.7175 26.6667C11.5291 26.3848 11.4286 26.0533 11.4286 25.7143C11.4286 25.2596 11.6092 24.8236 11.9307 24.5021C12.2522 24.1806 12.6882 24 13.1429 24ZM7.42857 18.2857C7.76763 18.2857 8.09906 18.3862 8.38098 18.5746C8.66289 18.7629 8.88262 19.0307 9.01237 19.3439C9.14212 19.6572 9.17606 20.0019 9.10992 20.3344C9.04377 20.6669 8.8805 20.9724 8.64076 21.2121C8.40101 21.4519 8.09555 21.6152 7.76301 21.6813C7.43047 21.7475 7.08579 21.7135 6.77254 21.5838C6.4593 21.454 6.19156 21.2343 6.0032 20.9524C5.81483 20.6705 5.71429 20.339 5.71429 20C5.71429 19.5453 5.8949 19.1093 6.21639 18.7878C6.53788 18.4663 6.97391 18.2857 7.42857 18.2857ZM7.42857 24C7.76763 24 8.09906 24.1005 8.38098 24.2889C8.66289 24.4773 8.88262 24.745 9.01237 25.0582C9.14212 25.3715 9.17606 25.7162 9.10992 26.0487C9.04377 26.3812 8.8805 26.6867 8.64076 26.9265C8.40101 27.1662 8.09555 27.3295 7.76301 27.3956C7.43047 27.4618 7.08579 27.4278 6.77254 27.2981C6.4593 27.1683 6.19156 26.9486 6.0032 26.6667C5.81483 26.3848 5.71429 26.0533 5.71429 25.7143C5.71429 25.2596 5.8949 24.8236 6.21639 24.5021C6.53788 24.1806 6.97391 24 7.42857 24Z" fill="#F7F0FF"/>
</g>
<defs>
<clipPath id="clip0_770_582">
<rect width="32" height="32" fill="white"/>
</clipPath>
</defs>
</svg>
