<svg width="32" height="32" viewBox="0 0 32 32" fill="none" xmlns="http://www.w3.org/2000/svg">
<path d="M16 3C8.83187 3 3 8.83187 3 16C3 23.1681 8.83187 29 16 29C23.1681 29 29 23.1681 29 16C29 8.83187 23.1681 3 16 3ZM20.7069 19.2931C20.8036 19.3851 20.881 19.4954 20.9345 19.6178C20.9879 19.7401 21.0163 19.8718 21.018 20.0053C21.0197 20.1388 20.9947 20.2712 20.9444 20.3949C20.8941 20.5185 20.8196 20.6308 20.7252 20.7252C20.6308 20.8196 20.5185 20.8941 20.3949 20.9444C20.2712 20.9947 20.1388 21.0197 20.0053 21.018C19.8718 21.0163 19.7401 20.9879 19.6178 20.9345C19.4954 20.881 19.3851 20.8036 19.2931 20.7069L16 17.4144L12.7069 20.7069C12.5178 20.8865 12.2661 20.9852 12.0053 20.9818C11.7445 20.9785 11.4954 20.8734 11.311 20.689C11.1266 20.5046 11.0215 20.2555 11.0182 19.9947C11.0148 19.7339 11.1135 19.4822 11.2931 19.2931L14.5856 16L11.2931 12.7069C11.1135 12.5178 11.0148 12.2661 11.0182 12.0053C11.0215 11.7445 11.1266 11.4954 11.311 11.311C11.4954 11.1266 11.7445 11.0215 12.0053 11.0182C12.2661 11.0148 12.5178 11.1135 12.7069 11.2931L16 14.5856L19.2931 11.2931C19.4822 11.1135 19.7339 11.0148 19.9947 11.0182C20.2555 11.0215 20.5046 11.1266 20.689 11.311C20.8734 11.4954 20.9785 11.7445 20.9818 12.0053C20.9852 12.2661 20.8865 12.5178 20.7069 12.7069L17.4144 16L20.7069 19.2931Z" fill="#F7F0FF"/>
</svg>
