<svg width="32" height="32" viewBox="0 0 32 32" fill="none" xmlns="http://www.w3.org/2000/svg">
<path d="M16 2C8.26875 2 2 8.43125 2 16.3563C2 22.7 6.0125 28.075 11.575 29.975C11.653 29.9919 11.7327 30.0003 11.8125 30C12.3313 30 12.5312 29.6188 12.5312 29.2875C12.5312 28.9438 12.5187 28.0438 12.5125 26.8438C12.0494 26.9523 11.5756 27.0089 11.1 27.0125C8.40625 27.0125 7.79375 24.9188 7.79375 24.9188C7.15625 23.2625 6.2375 22.8188 6.2375 22.8188C5.01875 21.9625 6.23125 21.9375 6.325 21.9375H6.33125C7.7375 22.0625 8.475 23.425 8.475 23.425C9.175 24.65 10.1125 24.9937 10.95 24.9937C11.5038 24.9827 12.049 24.8549 12.55 24.6187C12.675 23.6937 13.0375 23.0625 13.4375 22.7C10.3312 22.3375 7.0625 21.1062 7.0625 15.6062C7.0625 14.0375 7.60625 12.7563 8.5 11.7563C8.35625 11.3938 7.875 9.93125 8.6375 7.95625C8.73978 7.93178 8.8449 7.92126 8.95 7.925C9.45625 7.925 10.6 8.11875 12.4875 9.43125C14.781 8.78957 17.2065 8.78957 19.5 9.43125C21.3875 8.11875 22.5313 7.925 23.0375 7.925C23.1426 7.92126 23.2477 7.93178 23.35 7.95625C24.1125 9.93125 23.6312 11.3938 23.4875 11.7563C24.3812 12.7625 24.925 14.0437 24.925 15.6062C24.925 21.1187 21.65 22.3313 18.5312 22.6875C19.0312 23.1312 19.4813 24.0063 19.4813 25.3438C19.4813 27.2625 19.4625 28.8125 19.4625 29.2812C19.4625 29.6188 19.6562 30 20.175 30C20.259 30.0004 20.3428 29.992 20.425 29.975C25.9937 28.075 30 22.6938 30 16.3563C30 8.43125 23.7312 2 16 2Z" fill="#F7F0FF"/>
</svg>
