<svg width="25" height="25" viewBox="0 0 25 25" fill="none" xmlns="http://www.w3.org/2000/svg">
<path d="M10.3779 17.4171H7.72192C6.52845 17.4171 5.38386 16.943 4.53994 16.0991C3.69603 15.2552 3.22192 14.1106 3.22192 12.9171C3.22192 11.7236 3.69603 10.579 4.53994 9.73513C5.38386 8.89122 6.52845 8.41711 7.72192 8.41711H10.3193M15.6246 8.41711H18.2219C19.4154 8.41711 20.56 8.89122 21.4039 9.73513C22.2478 10.579 22.7219 11.7236 22.7219 12.9171C22.7219 14.1106 22.2478 15.2552 21.4039 16.0991C20.56 16.943 19.4154 17.4171 18.2219 17.4171H15.566M8.89708 12.9171H17.1405" stroke="#FFD865" stroke-width="2" stroke-linecap="round" stroke-linejoin="round"/>
</svg>
