<svg width="32" height="32" viewBox="0 0 32 32" fill="none" xmlns="http://www.w3.org/2000/svg">
<path d="M3 11.0032V11.0445C2.99852 11.3022 2.90548 11.5509 2.7375 11.7463V11.7495C2.4 12.1482 2 12.862 2 14.0032C2 15.0376 2.33125 15.7676 2.73 16.2476C2.90495 16.4605 3.0004 16.7276 3 17.0032C3 17.5336 3.21071 18.0424 3.58579 18.4174C3.96086 18.7925 4.46957 19.0032 5 19.0032H5.5C5.63261 19.0032 5.75979 18.9505 5.85355 18.8568C5.94732 18.763 6 18.6358 6 18.5032V9.50322C6 9.37061 5.94732 9.24343 5.85355 9.14966C5.75979 9.05589 5.63261 9.00322 5.5 9.00322H5C4.46957 9.00322 3.96086 9.21393 3.58579 9.589C3.21071 9.96408 3 10.4728 3 11.0032ZM28.2612 11.6626L28.2031 11.652C28.146 11.6411 28.0944 11.6106 28.0573 11.5657C28.0203 11.5209 28 11.4645 28 11.4063V3.87822C28 3.08822 27.4756 2.37822 26.6944 2.10822C25.9494 1.85134 25.1731 2.06072 24.7144 2.64134C23.7384 3.80673 22.6657 4.88746 21.5075 5.87197C20.0306 7.12197 18.6175 8.01259 17.32 8.51634C17.2254 8.55242 17.1439 8.61637 17.0865 8.69973C17.029 8.7831 16.9982 8.88196 16.9981 8.98322V18.6907C16.9983 18.8862 17.0557 19.0773 17.1634 19.2405C17.271 19.4037 17.4241 19.5317 17.6038 19.6088C18.8125 20.127 20.1188 20.9732 21.4788 22.1263C22.6456 23.1198 23.7262 24.2103 24.7087 25.3863C24.8662 25.5838 25.0671 25.7423 25.2959 25.8493C25.5246 25.9563 25.775 26.009 26.0275 26.0032C26.2494 26.0022 26.4697 25.9655 26.68 25.8945C27.4819 25.6282 28 24.9438 28 24.1532V16.5988C28.0001 16.5398 28.021 16.4827 28.0591 16.4377C28.0972 16.3926 28.15 16.3625 28.2081 16.3526L28.2612 16.3438C28.8625 16.1807 30 15.4826 30 14.0032C30 12.5238 28.8625 11.8257 28.2612 11.6626ZM15 20.0032V9.50322C15 9.37061 14.9473 9.24343 14.8536 9.14966C14.7598 9.05589 14.6326 9.00322 14.5 9.00322H8.5C8.36739 9.00322 8.24021 9.05589 8.14645 9.14966C8.05268 9.24343 8 9.37061 8 9.50322V28.5032C8 28.901 8.15804 29.2826 8.43934 29.5639C8.72064 29.8452 9.10218 30.0032 9.5 30.0032H12.7781C13.0897 30.0058 13.3978 29.937 13.6787 29.8022C13.9596 29.6673 14.2059 29.4699 14.3988 29.2251C14.5964 28.9717 14.7294 28.6739 14.7861 28.3576C14.8429 28.0412 14.8217 27.7158 14.7244 27.4095C14.6231 27.0857 14.4975 26.722 14.3638 26.3351C13.8694 24.9038 13.2175 24.0182 13.0437 22.0026C13.5665 21.9912 14.0639 21.7755 14.4295 21.4018C14.7952 21.0281 15 20.526 15 20.0032Z" fill="#F7F0FF"/>
</svg>
