<svg width="32" height="32" viewBox="0 0 32 32" fill="none" xmlns="http://www.w3.org/2000/svg">
<path d="M29.5622 2.43922C29.3577 2.23477 29.0984 2.09379 28.8157 2.03325C28.5329 1.9727 28.2387 1.99518 27.9684 2.09797L2.96653 11.5611H2.96153C2.67326 11.672 2.42624 11.8691 2.25421 12.1256C2.08218 12.3822 1.99353 12.6855 2.00037 12.9943C2.00721 13.3031 2.1092 13.6023 2.29241 13.8509C2.47563 14.0996 2.73113 14.2856 3.02403 14.3836L3.04966 14.3917L11.6309 18.0561C11.7983 18.1069 11.9761 18.1129 12.1465 18.0736C12.3169 18.0342 12.474 17.9508 12.6022 17.8317L26.3747 4.9986C26.4157 4.95756 26.4644 4.925 26.518 4.90279C26.5717 4.88058 26.6291 4.86915 26.6872 4.86915C26.7452 4.86915 26.8027 4.88058 26.8563 4.90279C26.9099 4.925 26.9586 4.95756 26.9997 4.9986C27.0407 5.03963 27.0732 5.08835 27.0955 5.14197C27.1177 5.19559 27.1291 5.25306 27.1291 5.3111C27.1291 5.36913 27.1177 5.4266 27.0955 5.48022C27.0732 5.53384 27.0407 5.58256 26.9997 5.6236L14.1659 19.3898C14.0468 19.518 13.9634 19.6751 13.9241 19.8455C13.8847 20.0159 13.8907 20.1937 13.9415 20.3611L17.6072 28.9473C17.6109 28.9598 17.6147 28.9711 17.619 28.983C17.819 29.5623 18.3253 29.9711 18.9372 29.9986H18.9997C19.3086 30.0004 19.6108 29.9092 19.8672 29.7368C20.1236 29.5645 20.3222 29.319 20.4372 29.0323L29.899 4.03735C30.0033 3.7669 30.027 3.47203 29.9672 3.18841C29.9074 2.9048 29.7667 2.64458 29.5622 2.43922Z" fill="#F7F0FF"/>
</svg>
