<svg width="32" height="32" viewBox="0 0 32 32" fill="none" xmlns="http://www.w3.org/2000/svg">
<path d="M25 4C24.7348 4 24.4804 4.10536 24.2929 4.29289C24.1054 4.48043 24 4.73478 24 5V13.5269L9.45187 4.81938C9.11585 4.61498 8.7311 4.50459 8.33782 4.49975C7.94455 4.49491 7.5572 4.5958 7.21625 4.79187C6.46625 5.21687 6 6.03938 6 6.9375V25.0625C6 25.9606 6.46625 26.7831 7.21625 27.2081C7.55727 27.404 7.94465 27.5048 8.33791 27.4998C8.73117 27.4949 9.11589 27.3844 9.45187 27.18L24 18.4731V27C24 27.2652 24.1054 27.5196 24.2929 27.7071C24.4804 27.8946 24.7348 28 25 28C25.2652 28 25.5196 27.8946 25.7071 27.7071C25.8946 27.5196 26 27.2652 26 27V5C26 4.73478 25.8946 4.48043 25.7071 4.29289C25.5196 4.10536 25.2652 4 25 4Z" fill="#F7F0FF"/>
</svg>
