<svg width="32" height="32" viewBox="0 0 32 32" fill="none" xmlns="http://www.w3.org/2000/svg">
<path d="M8.31 27.0001C7.92626 26.9994 7.54932 26.8988 7.21625 26.7082C6.46625 26.2832 6 25.4582 6 24.5626V6.43761C6 5.53949 6.46625 4.71699 7.21625 4.29199C7.55725 4.09601 7.94464 3.99523 8.33791 4.00017C8.73118 4.00512 9.11591 4.11562 9.45188 4.32011L24.9425 13.5926C25.2653 13.795 25.5315 14.0761 25.716 14.4096C25.9004 14.743 25.9972 15.1178 25.9972 15.4989C25.9972 15.8799 25.9004 16.2547 25.716 16.5882C25.5315 16.9216 25.2653 17.2027 24.9425 17.4051L9.44937 26.6801C9.10556 26.888 8.71176 26.9986 8.31 27.0001Z" fill="#F7F0FF"/>
</svg>
