<svg width="32" height="32" viewBox="0 0 32 32" fill="none" xmlns="http://www.w3.org/2000/svg">
<path d="M20 9.5C20 9.5 21.5225 8.75 16 8.75C14.0222 8.75 12.0888 9.33649 10.4443 10.4353C8.79981 11.5341 7.51809 13.0959 6.76121 14.9232C6.00433 16.7504 5.8063 18.7611 6.19215 20.7009C6.578 22.6407 7.53041 24.4225 8.92894 25.8211C10.3275 27.2196 12.1093 28.172 14.0491 28.5579C15.9889 28.9437 17.9996 28.7457 19.8268 27.9888C21.6541 27.2319 23.2159 25.9502 24.3147 24.3057C25.4135 22.6612 26 20.7278 26 18.75" stroke="#F7F0FF" stroke-width="2" stroke-miterlimit="10" stroke-linecap="round"/>
<path d="M16 4L21 9L16 14" stroke="#F7F0FF" stroke-width="2" stroke-linecap="round" stroke-linejoin="round"/>
</svg>
