<svg width="32" height="32" viewBox="0 0 32 32" fill="none" xmlns="http://www.w3.org/2000/svg">
<g clip-path="url(#clip0_778_549)">
<path d="M27.2743 4.72567C25.7964 3.23312 24.0381 2.0473 22.1005 1.23633C20.1629 0.425358 18.0842 0.00521805 15.9837 4.82981e-05C13.8833 -0.00512146 11.8025 0.40478 9.86094 1.20621C7.91937 2.00763 6.15529 3.18478 4.67004 4.67004C3.18478 6.15529 2.00763 7.91937 1.20621 9.86094C0.40478 11.8025 -0.00512146 13.8833 4.82981e-05 15.9837C0.00521805 18.0842 0.425358 20.1629 1.23633 22.1005C2.0473 24.0381 3.23312 25.7964 4.72567 27.2743C6.2036 28.7669 7.96186 29.9527 9.89946 30.7637C11.8371 31.5746 13.9158 31.9948 16.0163 32C18.1167 32.0051 20.1975 31.5952 22.1391 30.7938C24.0806 29.9924 25.8447 28.8152 27.33 27.33C28.8152 25.8447 29.9924 24.0806 30.7938 22.1391C31.5952 20.1975 32.0051 18.1167 32 16.0163C31.9948 13.9158 31.5746 11.8371 30.7637 9.89946C29.9527 7.96186 28.7669 6.2036 27.2743 4.72567ZM10.875 12.5833C11.2129 12.5833 11.5431 12.6835 11.8241 12.8712C12.105 13.0589 12.324 13.3257 12.4533 13.6379C12.5826 13.9501 12.6164 14.2936 12.5505 14.6249C12.4846 14.9563 12.3219 15.2607 12.083 15.4996C11.844 15.7386 11.5396 15.9013 11.2083 15.9672C10.8769 16.0331 10.5334 15.9993 10.2212 15.87C9.90907 15.7407 9.64226 15.5217 9.45455 15.2408C9.26683 14.9598 9.16664 14.6295 9.16664 14.2917C9.16608 14.0672 9.20988 13.8448 9.29553 13.6372C9.38119 13.4297 9.507 13.2412 9.66575 13.0824C9.82449 12.9237 10.013 12.7979 10.2206 12.7122C10.4281 12.6266 10.6505 12.5828 10.875 12.5833ZM9.19013 23.2483C10.0443 20.3798 12.7634 18.2778 15.9964 18.2778C19.2295 18.2778 21.9486 20.3798 22.8092 23.2483C22.8332 23.3337 22.837 23.4235 22.8202 23.5106C22.8035 23.5977 22.7666 23.6797 22.7125 23.75C22.6584 23.8203 22.5887 23.877 22.5088 23.9156C22.429 23.9542 22.3412 23.9736 22.2525 23.9723H9.74677C9.65808 23.9736 9.57031 23.9542 9.49045 23.9156C9.41059 23.877 9.34085 23.8203 9.28679 23.75C9.23272 23.6797 9.19583 23.5977 9.17905 23.5106C9.16227 23.4235 9.16606 23.3337 9.19013 23.2483ZM21.125 16C20.7871 16 20.4569 15.8998 20.1759 15.7121C19.895 15.5244 19.676 15.2576 19.5467 14.9454C19.4174 14.6333 19.3836 14.2898 19.4495 13.9584C19.5154 13.627 19.6781 13.3226 19.917 13.0837C20.156 12.8448 20.4604 12.6821 20.7917 12.6161C21.1231 12.5502 21.4666 12.5841 21.7788 12.7134C22.0909 12.8427 22.3577 13.0616 22.5455 13.3426C22.7332 13.6235 22.8334 13.9538 22.8334 14.2917C22.8339 14.5162 22.7901 14.7386 22.7045 14.9461C22.6188 15.1536 22.493 15.3421 22.3343 15.5009C22.1755 15.6596 21.987 15.7855 21.7794 15.8711C21.5719 15.9568 21.3495 16.0006 21.125 16Z" fill="#F7F0FF"/>
</g>
<defs>
<clipPath id="clip0_778_549">
<rect width="32" height="32" fill="white"/>
</clipPath>
</defs>
</svg>
