<svg width="32" height="32" viewBox="0 0 32 32" fill="none" xmlns="http://www.w3.org/2000/svg">
<path d="M24.6224 30.001C24.4119 30.0018 24.2065 29.9362 24.0355 29.8135L15.9974 23.986L7.95925 29.8135C7.78752 29.938 7.58063 30.0047 7.36848 30.004C7.15634 30.0032 6.94994 29.935 6.77912 29.8092C6.6083 29.6834 6.48192 29.5065 6.41823 29.3041C6.35455 29.1018 6.35688 28.8844 6.42487 28.6835L9.55987 19.3978L1.43487 13.826C1.25888 13.7054 1.12605 13.5317 1.05579 13.3303C0.985534 13.1289 0.981529 12.9103 1.04436 12.7064C1.1072 12.5025 1.23358 12.3241 1.40504 12.1972C1.57649 12.0703 1.78405 12.0015 1.99737 12.001H12.0211L15.0461 2.69158C15.1113 2.49059 15.2384 2.31541 15.4093 2.19117C15.5802 2.06692 15.7861 2 15.9974 2C16.2087 2 16.4145 2.06692 16.5854 2.19117C16.7563 2.31541 16.8835 2.49059 16.9486 2.69158L19.9736 12.0041H29.9974C30.211 12.004 30.419 12.0723 30.5909 12.1989C30.7629 12.3256 30.8898 12.504 30.953 12.708C31.0163 12.9121 31.0125 13.131 30.9423 13.3327C30.8721 13.5344 30.7392 13.7084 30.563 13.8291L22.4349 19.3978L25.568 28.681C25.6188 28.8312 25.633 28.9915 25.6097 29.1484C25.5863 29.3053 25.5259 29.4544 25.4335 29.5833C25.3411 29.7123 25.2194 29.8174 25.0783 29.89C24.9373 29.9626 24.781 30.0007 24.6224 30.001Z" fill="#F7F0FF"/>
</svg>
