<svg width="32" height="32" viewBox="0 0 32 32" fill="none" xmlns="http://www.w3.org/2000/svg">
<g clip-path="url(#clip0_770_548)">
<path d="M16 0C7.16385 0 0 7.16385 0 16C0 24.8362 7.16385 32 16 32C24.8362 32 32 24.8362 32 16C32 7.16385 24.8362 0 16 0ZM23.3846 18.4615H16C15.6736 18.4615 15.3605 18.3319 15.1297 18.1011C14.8989 17.8702 14.7692 17.5572 14.7692 17.2308V6.15385C14.7692 5.82743 14.8989 5.51438 15.1297 5.28356C15.3605 5.05275 15.6736 4.92308 16 4.92308C16.3264 4.92308 16.6395 5.05275 16.8703 5.28356C17.1011 5.51438 17.2308 5.82743 17.2308 6.15385V16H23.3846C23.711 16 24.0241 16.1297 24.2549 16.3605C24.4857 16.5913 24.6154 16.9043 24.6154 17.2308C24.6154 17.5572 24.4857 17.8702 24.2549 18.1011C24.0241 18.3319 23.711 18.4615 23.3846 18.4615Z" fill="#F7F0FF"/>
</g>
<defs>
<clipPath id="clip0_770_548">
<rect width="32" height="32" fill="white"/>
</clipPath>
</defs>
</svg>
