<svg width="24" height="24" viewBox="0 0 24 24" fill="none" xmlns="http://www.w3.org/2000/svg">
<path d="M21 12C21 7.03125 16.9688 3 12 3C7.03125 3 3 7.03125 3 12C3 16.9688 7.03125 21 12 21C16.9688 21 21 16.9688 21 12Z" stroke="#75DBE7" stroke-width="2" stroke-miterlimit="10"/>
<path d="M11.7309 7.78359L12 13.5L12.2686 7.78359C12.2702 7.74705 12.2644 7.71055 12.2515 7.67633C12.2386 7.64211 12.2188 7.61088 12.1934 7.58456C12.168 7.55823 12.1375 7.53736 12.1038 7.52323C12.07 7.50909 12.0338 7.50199 11.9972 7.50234C11.961 7.50268 11.9253 7.5103 11.8922 7.52475C11.8591 7.5392 11.8292 7.56017 11.8043 7.58642C11.7795 7.61267 11.7602 7.64366 11.7476 7.67754C11.7349 7.71141 11.7293 7.74748 11.7309 7.78359Z" stroke="#75DBE7" stroke-width="2" stroke-linecap="round" stroke-linejoin="round"/>
<path d="M12 17.2458C11.8146 17.2458 11.6333 17.1908 11.4792 17.0878C11.325 16.9848 11.2048 16.8384 11.1339 16.667C11.0629 16.4957 11.0443 16.3072 11.0805 16.1254C11.1167 15.9435 11.206 15.7765 11.3371 15.6454C11.4682 15.5143 11.6352 15.425 11.8171 15.3888C11.999 15.3526 12.1875 15.3712 12.3588 15.4421C12.5301 15.5131 12.6765 15.6333 12.7795 15.7874C12.8825 15.9416 12.9375 16.1229 12.9375 16.3083C12.9375 16.5569 12.8387 16.7954 12.6629 16.9712C12.4871 17.147 12.2486 17.2458 12 17.2458Z" fill="#75DBE7"/>
</svg>
