<svg width="32" height="32" viewBox="0 0 32 32" fill="none" xmlns="http://www.w3.org/2000/svg">
<path d="M16.1825 3.00121C8.87121 2.90246 2.90246 8.87121 3.00121 16.1825C3.09871 23.1943 8.80808 28.9037 15.82 29.0012C23.1325 29.1012 29.1 23.1325 29 15.8212C28.9037 8.80808 23.1943 3.09871 16.1825 3.00121ZM24.0837 23.4543C24.0588 23.4813 24.0283 23.5024 23.9943 23.5162C23.9604 23.53 23.9238 23.5362 23.8871 23.5343C23.8505 23.5324 23.8148 23.5224 23.7824 23.5051C23.7501 23.4879 23.7219 23.4637 23.7 23.4343C23.1409 22.7029 22.4563 22.0767 21.6781 21.585C20.0868 20.5637 18.0706 20.0012 16.0012 20.0012C13.9318 20.0012 11.9156 20.5637 10.3243 21.585C9.54613 22.0765 8.86152 22.7025 8.30246 23.4337C8.2805 23.4631 8.25234 23.4872 8.21999 23.5045C8.18764 23.5218 8.15189 23.5317 8.11527 23.5336C8.07865 23.5355 8.04206 23.5294 8.00809 23.5156C7.97412 23.5017 7.9436 23.4806 7.91871 23.4537C6.08475 21.4739 5.04589 18.887 5.00121 16.1887C4.89933 10.1068 9.88996 5.01621 15.9743 5.00121C22.0587 4.98621 27.0012 9.92683 27.0012 16.0012C27.0033 18.7646 25.9612 21.4267 24.0837 23.4543Z" fill="#F7F0FF"/>
<path d="M16.0013 9.00121C14.7688 9.00121 13.6544 9.46308 12.8625 10.3025C12.0706 11.1418 11.675 12.3025 11.7644 13.5481C11.9456 16.0012 13.8463 18.0012 16.0013 18.0012C18.1563 18.0012 20.0531 16.0012 20.2381 13.5487C20.3306 12.315 19.9381 11.165 19.1331 10.31C18.3381 9.46621 17.2256 9.00121 16.0013 9.00121Z" fill="#F7F0FF"/>
</svg>
