<svg width="32" height="32" viewBox="0 0 32 32" fill="none" xmlns="http://www.w3.org/2000/svg">
<path d="M29 5H25.2437C25.1774 5 25.1139 4.97366 25.067 4.92678C25.0201 4.87989 24.9937 4.8163 24.9937 4.75V3.995C24.9924 3.46543 24.7811 2.95801 24.4062 2.58402C24.0313 2.21003 23.5233 2 22.9937 2L9.00688 2.01625C8.47785 2.01724 7.97077 2.22779 7.59663 2.60181C7.22249 2.97583 7.01178 3.48285 7.01062 4.01188V4.75C7.01062 4.8163 6.98429 4.87989 6.9374 4.92678C6.89052 4.97366 6.82693 5 6.76062 5H3C2.73478 5 2.48043 5.10536 2.29289 5.29289C2.10536 5.48043 2 5.73478 2 6V7C2 10.4081 3.875 14.0281 6.7825 14.8344C6.86847 14.8583 6.94625 14.9053 7.0074 14.9703C7.06855 15.0353 7.11073 15.1158 7.12937 15.2031C7.49 16.8837 8.59937 18.4844 10.3425 19.8037C11.6494 20.7931 13.2081 21.5225 14.6094 21.8337C14.7202 21.8586 14.8192 21.9204 14.8902 22.009C14.9612 22.0976 14.9999 22.2077 15 22.3213V27.75C15 27.8163 14.9737 27.8799 14.9268 27.9268C14.8799 27.9737 14.8163 28 14.75 28H11.0281C10.49 28 10.0281 28.4138 10.0013 28.9519C9.99474 29.0871 10.0157 29.2222 10.063 29.3491C10.1102 29.4759 10.1828 29.5919 10.2761 29.6898C10.3695 29.7878 10.4818 29.8659 10.6063 29.9192C10.7307 29.9725 10.8646 30 11 30H20.9719C21.51 30 21.9719 29.5862 21.9988 29.0481C22.0053 28.9129 21.9843 28.7778 21.937 28.6509C21.8898 28.5241 21.8172 28.4081 21.7239 28.3102C21.6305 28.2122 21.5182 28.1341 21.3937 28.0808C21.2693 28.0275 21.1354 28 21 28H17.25C17.1837 28 17.1201 27.9737 17.0732 27.9268C17.0263 27.8799 17 27.8163 17 27.75V22.3213C17.0001 22.2077 17.0388 22.0976 17.1098 22.009C17.1808 21.9204 17.2798 21.8586 17.3906 21.8337C18.7919 21.5212 20.3506 20.7931 21.6575 19.8037C23.4006 18.4844 24.51 16.8837 24.8706 15.2031C24.8893 15.1158 24.9314 15.0353 24.9926 14.9703C25.0537 14.9053 25.1315 14.8583 25.2175 14.8344C28.125 14.0281 30 10.4081 30 7V6C30 5.73478 29.8946 5.48043 29.7071 5.29289C29.5196 5.10536 29.2652 5 29 5ZM7 12.3888C6.99985 12.4326 6.98818 12.4756 6.96618 12.5134C6.94417 12.5513 6.9126 12.5828 6.87462 12.6046C6.83664 12.6264 6.79359 12.6379 6.74978 12.6379C6.70597 12.6378 6.66294 12.6263 6.625 12.6044C5.98375 12.2225 5.51563 11.6437 5.24125 11.2362C4.49688 10.1306 4.05375 8.69438 4.00437 7.25938C4.00311 7.22576 4.00865 7.19224 4.02065 7.16082C4.03264 7.1294 4.05086 7.10072 4.0742 7.07651C4.09754 7.05229 4.12553 7.03303 4.15649 7.01989C4.18745 7.00674 4.22074 6.99998 4.25437 7H6.75437C6.82068 7 6.88427 7.02634 6.93115 7.07322C6.97804 7.12011 7.00437 7.1837 7.00437 7.25C7.00312 8.96563 7 10.9294 7 12.3888ZM26.7581 11.2362C26.4838 11.6437 26.0163 12.2225 25.375 12.6044C25.337 12.6263 25.2939 12.6379 25.2501 12.6379C25.2062 12.6379 25.1631 12.6264 25.1251 12.6044C25.0871 12.5825 25.0556 12.551 25.0336 12.513C25.0116 12.4751 25 12.432 25 12.3881C25 10.7313 25 8.84875 24.9969 7.25C24.9969 7.1837 25.0232 7.12011 25.0701 7.07322C25.117 7.02634 25.1806 7 25.2469 7H27.7469C27.7805 6.99998 27.8138 7.00674 27.8448 7.01989C27.8757 7.03303 27.9037 7.05229 27.9271 7.07651C27.9504 7.10072 27.9686 7.1294 27.9806 7.16082C27.9926 7.19224 27.9981 7.22576 27.9969 7.25938C27.9475 8.69438 27.5031 10.1306 26.7588 11.2362H26.7581Z" fill="#F7F0FF"/>
</svg>
