<svg width="32" height="32" viewBox="0 0 32 32" fill="none" xmlns="http://www.w3.org/2000/svg">
<path d="M31.7904 9.29937C31.7904 6.48687 29.7216 4.22437 27.1654 4.22437C23.7029 4.0625 20.1716 4 16.5629 4H15.4379C11.8379 4 8.30038 4.0625 4.83788 4.225C2.28788 4.225 0.21913 6.5 0.21913 9.3125C0.0628801 11.5369 -0.00336993 13.7619 0.000380068 15.9869C-0.00586993 18.2119 0.0649634 20.439 0.21288 22.6681C0.21288 25.4806 2.28163 27.7619 4.83163 27.7619C8.46913 27.9306 12.2004 28.0056 15.9941 27.9994C19.7941 28.0119 23.515 27.9327 27.1566 27.7619C29.7129 27.7619 31.7816 25.4806 31.7816 22.6681C31.9316 20.4369 32.0004 18.2119 31.9941 15.9806C32.0083 13.7556 31.9404 11.5285 31.7904 9.29937ZM12.9379 22.1181V9.83687L22.0004 15.9744L12.9379 22.1181Z" fill="#F7F0FF"/>
</svg>
