<svg width="180" height="130" viewBox="0 0 180 130" fill="none" xmlns="http://www.w3.org/2000/svg">
<rect x="65" width="50" height="50" rx="8" fill="#00A13E"/>
<rect y="80" width="50" height="50" rx="8" fill="#F5DE1C"/>
<rect x="130" y="80" width="50" height="50" rx="8" fill="#F5DE1C"/>
<path d="M153.5 80V81.5H156.5V80H153.5ZM117.939 23.9393C117.354 24.5251 117.354 25.4749 117.939 26.0607L127.485 35.6066C128.071 36.1924 129.021 36.1924 129.607 35.6066C130.192 35.0208 130.192 34.0711 129.607 33.4853L121.121 25L129.607 16.5147C130.192 15.9289 130.192 14.9792 129.607 14.3934C129.021 13.8076 128.071 13.8076 127.485 14.3934L117.939 23.9393ZM156.5 80V49H153.5V80H156.5ZM131 23.5H119V26.5H131V23.5ZM156.5 49C156.5 34.9167 145.083 23.5 131 23.5V26.5C143.426 26.5 153.5 36.5736 153.5 49H156.5Z" fill="#00A13E"/>
<path d="M23.5 80V81.5H26.5V80H23.5ZM62.0607 26.0607C62.6464 25.4749 62.6464 24.5251 62.0607 23.9393L52.5147 14.3934C51.9289 13.8076 50.9792 13.8076 50.3934 14.3934C49.8076 14.9792 49.8076 15.9289 50.3934 16.5147L58.8787 25L50.3934 33.4853C49.8076 34.0711 49.8076 35.0208 50.3934 35.6066C50.9792 36.1924 51.9289 36.1924 52.5147 35.6066L62.0607 26.0607ZM26.5 80V49H23.5V80H26.5ZM49 26.5H61V23.5H49V26.5ZM26.5 49C26.5 36.5736 36.5736 26.5 49 26.5V23.5C34.9167 23.5 23.5 34.9167 23.5 49H26.5Z" fill="#00A13E"/>
</svg>
